<svg xmlns="http://www.w3.org/2000/svg" xmlns:xlink="http://www.w3.org/1999/xlink" width="500" zoomAndPan="magnify" viewBox="0 0 375 374.999991" height="500" preserveAspectRatio="xMidYMid meet" version="1.0"><defs><g/></defs><g fill="#d8d5ce" fill-opacity="1"><g transform="translate(22.833436, 213.749986)"><g><path d="M 5.734375 0 L 5.734375 -49.0625 L 22.65625 -49.0625 L 22.65625 -43.890625 L 22.859375 -43.890625 C 27.253906 -48.285156 31.9375 -50.484375 36.90625 -50.484375 C 40.476562 -50.484375 43.828125 -49.75 46.953125 -48.28125 C 50.078125 -46.820312 52.4375 -44.5625 54.03125 -41.5 C 59 -47.488281 64.414062 -50.484375 70.28125 -50.484375 C 75.507812 -50.484375 80.003906 -49.015625 83.765625 -46.078125 C 87.523438 -43.148438 89.40625 -38.566406 89.40625 -32.328125 L 89.40625 0 L 72.484375 0 L 72.484375 -27.734375 C 72.484375 -30.347656 71.765625 -32.53125 70.328125 -34.28125 C 68.898438 -36.03125 66.75 -36.90625 63.875 -36.90625 C 61.382812 -36.90625 59.488281 -36.15625 58.1875 -34.65625 C 56.882812 -33.164062 56.164062 -31.367188 56.03125 -29.265625 L 56.03125 0 L 39.109375 0 L 39.109375 -27.734375 C 39.109375 -30.347656 38.390625 -32.53125 36.953125 -34.28125 C 35.523438 -36.03125 33.375 -36.90625 30.5 -36.90625 C 27.882812 -36.90625 25.921875 -36.09375 24.609375 -34.46875 C 23.304688 -32.84375 22.65625 -30.914062 22.65625 -28.6875 L 22.65625 0 Z M 5.734375 0 "/></g></g></g><g fill="#d8d5ce" fill-opacity="1"><g transform="translate(108.03471, 213.749986)"><g><path d="M 10.375 -5.828125 C 4.925781 -10.671875 2.203125 -16.882812 2.203125 -24.46875 C 2.203125 -32.0625 5.035156 -38.296875 10.703125 -43.171875 C 16.378906 -48.046875 23.394531 -50.484375 31.75 -50.484375 C 39.96875 -50.484375 46.898438 -48.03125 52.546875 -43.125 C 58.191406 -38.21875 61.015625 -32.003906 61.015625 -24.484375 C 61.015625 -16.960938 58.253906 -10.757812 52.734375 -5.875 C 47.222656 -1 40.226562 1.4375 31.75 1.4375 C 22.945312 1.4375 15.820312 -0.984375 10.375 -5.828125 Z M 23.46875 -32.796875 C 21.269531 -30.628906 20.171875 -27.851562 20.171875 -24.46875 C 20.171875 -21.09375 21.222656 -18.335938 23.328125 -16.203125 C 25.429688 -14.066406 28.207031 -13 31.65625 -13 C 34.96875 -13 37.691406 -14.082031 39.828125 -16.25 C 41.960938 -18.414062 43.03125 -21.160156 43.03125 -24.484375 C 43.03125 -27.859375 41.929688 -30.628906 39.734375 -32.796875 C 37.535156 -34.960938 34.84375 -36.046875 31.65625 -36.046875 C 28.40625 -36.046875 25.675781 -34.960938 23.46875 -32.796875 Z M 23.46875 -32.796875 "/></g></g></g><g fill="#d8d5ce" fill-opacity="1"><g transform="translate(162.253478, 213.749986)"><g><path d="M 5.734375 0 L 5.734375 -49.0625 L 22.65625 -49.0625 L 22.65625 -43.890625 L 22.859375 -43.890625 C 27.253906 -48.285156 31.9375 -50.484375 36.90625 -50.484375 C 40.476562 -50.484375 43.828125 -49.75 46.953125 -48.28125 C 50.078125 -46.820312 52.4375 -44.5625 54.03125 -41.5 C 59 -47.488281 64.414062 -50.484375 70.28125 -50.484375 C 75.507812 -50.484375 80.003906 -49.015625 83.765625 -46.078125 C 87.523438 -43.148438 89.40625 -38.566406 89.40625 -32.328125 L 89.40625 0 L 72.484375 0 L 72.484375 -27.734375 C 72.484375 -30.347656 71.765625 -32.53125 70.328125 -34.28125 C 68.898438 -36.03125 66.75 -36.90625 63.875 -36.90625 C 61.382812 -36.90625 59.488281 -36.15625 58.1875 -34.65625 C 56.882812 -33.164062 56.164062 -31.367188 56.03125 -29.265625 L 56.03125 0 L 39.109375 0 L 39.109375 -27.734375 C 39.109375 -30.347656 38.390625 -32.53125 36.953125 -34.28125 C 35.523438 -36.03125 33.375 -36.90625 30.5 -36.90625 C 27.882812 -36.90625 25.921875 -36.09375 24.609375 -34.46875 C 23.304688 -32.84375 22.65625 -30.914062 22.65625 -28.6875 L 22.65625 0 Z M 5.734375 0 "/></g></g></g><g fill="#d8d5ce" fill-opacity="1"><g transform="translate(247.454759, 213.749986)"><g><path d="M 10.375 -5.828125 C 4.925781 -10.671875 2.203125 -16.882812 2.203125 -24.46875 C 2.203125 -32.0625 5.035156 -38.296875 10.703125 -43.171875 C 16.378906 -48.046875 23.394531 -50.484375 31.75 -50.484375 C 39.96875 -50.484375 46.898438 -48.03125 52.546875 -43.125 C 58.191406 -38.21875 61.015625 -32.003906 61.015625 -24.484375 C 61.015625 -16.960938 58.253906 -10.757812 52.734375 -5.875 C 47.222656 -1 40.226562 1.4375 31.75 1.4375 C 22.945312 1.4375 15.820312 -0.984375 10.375 -5.828125 Z M 23.46875 -32.796875 C 21.269531 -30.628906 20.171875 -27.851562 20.171875 -24.46875 C 20.171875 -21.09375 21.222656 -18.335938 23.328125 -16.203125 C 25.429688 -14.066406 28.207031 -13 31.65625 -13 C 34.96875 -13 37.691406 -14.082031 39.828125 -16.25 C 41.960938 -18.414062 43.03125 -21.160156 43.03125 -24.484375 C 43.03125 -27.859375 41.929688 -30.628906 39.734375 -32.796875 C 37.535156 -34.960938 34.84375 -36.046875 31.65625 -36.046875 C 28.40625 -36.046875 25.675781 -34.960938 23.46875 -32.796875 Z M 23.46875 -32.796875 "/></g></g></g><g fill="#d8d5ce" fill-opacity="1"><g transform="translate(301.673521, 213.749986)"><g/></g></g><g fill="#d8d5ce" fill-opacity="1"><g transform="translate(318.789761, 213.749986)"><g><path d="M 16.640625 -20.46875 C 19.703125 -20.46875 22.300781 -19.398438 24.4375 -17.265625 C 26.570312 -15.128906 27.640625 -12.53125 27.640625 -9.46875 C 27.640625 -6.46875 26.570312 -3.898438 24.4375 -1.765625 C 22.300781 0.367188 19.703125 1.4375 16.640625 1.4375 C 13.640625 1.4375 11.070312 0.367188 8.9375 -1.765625 C 6.800781 -3.898438 5.734375 -6.46875 5.734375 -9.46875 C 5.734375 -12.53125 6.800781 -15.128906 8.9375 -17.265625 C 11.070312 -19.398438 13.640625 -20.46875 16.640625 -20.46875 Z M 16.640625 -20.46875 "/></g></g></g></svg>